<mxfile host="65bd71144e">
    <diagram id="Pwh17KiYS3t1jNNCGKba" name="Page-1">
        <mxGraphModel dx="2475" dy="932" grid="1" gridSize="10" guides="1" tooltips="1" connect="1" arrows="1" fold="1" page="1" pageScale="1" pageWidth="300" pageHeight="400" background="#E3D3D8" math="0" shadow="0">
            <root>
                <mxCell id="0"/>
                <mxCell id="1" parent="0"/>
                <mxCell id="67" value="&lt;font style=&quot;font-size: 30px;&quot; color=&quot;#000000&quot;&gt;Profile Functionality&lt;br&gt;&lt;/font&gt;" style="text;html=1;align=center;verticalAlign=middle;resizable=0;points=[];autosize=1;strokeColor=none;fillColor=#d8c9ce;shadow=0;strokeWidth=3;fontStyle=1" parent="1" vertex="1">
                    <mxGeometry x="-600" y="220" width="310" height="50" as="geometry"/>
                </mxCell>
                <mxCell id="103" value="" style="rounded=1;whiteSpace=wrap;html=1;shadow=0;strokeWidth=3;fontColor=#000000;opacity=70;" parent="1" vertex="1">
                    <mxGeometry x="-1110" y="200" width="370.87" height="200" as="geometry"/>
                </mxCell>
                <mxCell id="106" value="&lt;b&gt;Security&lt;br&gt;AppFilter&lt;br&gt;&lt;/b&gt;" style="text;html=1;align=center;verticalAlign=middle;resizable=0;points=[];autosize=1;strokeColor=none;fillColor=#999999;fontColor=#000000;labelBackgroundColor=none;labelBorderColor=none;" parent="1" vertex="1">
                    <mxGeometry x="-964.5600000000001" y="210" width="80" height="40" as="geometry"/>
                </mxCell>
                <mxCell id="108" value="if don't get Session" style="rounded=0;whiteSpace=wrap;html=1;strokeColor=none;strokeWidth=4;" parent="1" vertex="1">
                    <mxGeometry x="-1068.9099999999999" y="270" width="94.56" height="60" as="geometry"/>
                </mxCell>
                <mxCell id="109" value="" style="shape=flexArrow;endArrow=classic;html=1;fillColor=default;endWidth=11;endSize=6.63;width=8;" parent="1" edge="1">
                    <mxGeometry width="50" height="50" relative="1" as="geometry">
                        <mxPoint x="-964.3500000000001" y="299.5" as="sourcePoint"/>
                        <mxPoint x="-884.35" y="299.5" as="targetPoint"/>
                    </mxGeometry>
                </mxCell>
                <mxCell id="111" value="redirect to&lt;br&gt;login" style="rounded=0;whiteSpace=wrap;html=1;strokeColor=none;strokeWidth=4;" parent="1" vertex="1">
                    <mxGeometry x="-874.79" y="270" width="94.56" height="60" as="geometry"/>
                </mxCell>
                <mxCell id="119" value="&lt;b&gt;use = /app/*&lt;br&gt;&lt;/b&gt;" style="text;html=1;align=center;verticalAlign=middle;resizable=0;points=[];autosize=1;strokeColor=none;fillColor=#999999;fontColor=#000000;labelBackgroundColor=none;labelBorderColor=none;" parent="1" vertex="1">
                    <mxGeometry x="-974.35" y="355" width="90" height="30" as="geometry"/>
                </mxCell>
                <mxCell id="130" value="" style="rounded=1;whiteSpace=wrap;html=1;shadow=0;strokeWidth=3;fontColor=#000000;opacity=70;" parent="1" vertex="1">
                    <mxGeometry x="-671" y="387" width="450.87" height="380" as="geometry"/>
                </mxCell>
                <mxCell id="131" value="Actor" style="shape=umlActor;verticalLabelPosition=bottom;verticalAlign=top;html=1;outlineConnect=0;strokeColor=#000000;strokeWidth=4;fontColor=#000000;" parent="1" vertex="1">
                    <mxGeometry x="-920" y="581" width="110" height="220" as="geometry"/>
                </mxCell>
                <mxCell id="132" value="Check the current password is correct" style="rounded=0;whiteSpace=wrap;html=1;strokeColor=none;strokeWidth=4;" parent="1" vertex="1">
                    <mxGeometry x="-575.5699999999999" y="447" width="260" height="60" as="geometry"/>
                </mxCell>
                <mxCell id="133" value="" style="shape=flexArrow;endArrow=classic;html=1;fillColor=default;endWidth=11;endSize=6.63;width=8;" parent="1" edge="1">
                    <mxGeometry width="50" height="50" relative="1" as="geometry">
                        <mxPoint x="-446.07000000000016" y="517" as="sourcePoint"/>
                        <mxPoint x="-445.57000000000016" y="557" as="targetPoint"/>
                    </mxGeometry>
                </mxCell>
                <mxCell id="134" value="" style="shape=flexArrow;endArrow=classic;html=1;fillColor=default;endWidth=11;endSize=6.63;width=8;" parent="1" edge="1">
                    <mxGeometry width="50" height="50" relative="1" as="geometry">
                        <mxPoint x="-446.07000000000016" y="637" as="sourcePoint"/>
                        <mxPoint x="-445.57000000000016" y="677" as="targetPoint"/>
                    </mxGeometry>
                </mxCell>
                <mxCell id="135" value="Check if new passwords are equal and different of current one" style="rounded=0;whiteSpace=wrap;html=1;strokeColor=none;strokeWidth=4;" parent="1" vertex="1">
                    <mxGeometry x="-574.9999999999999" y="567" width="260" height="60" as="geometry"/>
                </mxCell>
                <mxCell id="136" value="Encrypt password and persist data to DB" style="rounded=0;whiteSpace=wrap;html=1;strokeColor=none;strokeWidth=4;" parent="1" vertex="1">
                    <mxGeometry x="-575.5699999999999" y="687" width="260" height="60" as="geometry"/>
                </mxCell>
                <mxCell id="137" value="&lt;b&gt;Change password&lt;br&gt;&lt;/b&gt;" style="text;html=1;align=center;verticalAlign=middle;resizable=0;points=[];autosize=1;strokeColor=none;fillColor=#999999;fontColor=#000000;labelBackgroundColor=none;labelBorderColor=none;" parent="1" vertex="1">
                    <mxGeometry x="-510.57000000000005" y="397" width="130" height="30" as="geometry"/>
                </mxCell>
                <mxCell id="138" value="" style="shape=flexArrow;endArrow=classic;html=1;fillColor=default;endWidth=24;endSize=15;" parent="1" edge="1">
                    <mxGeometry width="50" height="50" relative="1" as="geometry">
                        <mxPoint x="-790" y="657" as="sourcePoint"/>
                        <mxPoint x="-600.23" y="477" as="targetPoint"/>
                        <Array as="points">
                            <mxPoint x="-710" y="657"/>
                            <mxPoint x="-710.23" y="477"/>
                        </Array>
                    </mxGeometry>
                </mxCell>
                <mxCell id="139" value="" style="shape=flexArrow;endArrow=classic;html=1;fillColor=default;endWidth=24;endSize=15;" parent="1" edge="1">
                    <mxGeometry width="50" height="50" relative="1" as="geometry">
                        <mxPoint x="-295" y="717" as="sourcePoint"/>
                        <mxPoint x="-80" y="597" as="targetPoint"/>
                        <Array as="points">
                            <mxPoint x="-185" y="717"/>
                            <mxPoint x="-185" y="597"/>
                        </Array>
                    </mxGeometry>
                </mxCell>
                <mxCell id="140" value="Close Modal and alert user." style="rounded=0;whiteSpace=wrap;html=1;strokeColor=none;strokeWidth=4;" parent="1" vertex="1">
                    <mxGeometry x="-50" y="567" width="94.56" height="60" as="geometry"/>
                </mxCell>
                <mxCell id="141" value="" style="rounded=1;whiteSpace=wrap;html=1;shadow=0;strokeWidth=3;fontColor=#000000;opacity=70;" parent="1" vertex="1">
                    <mxGeometry x="-199.53999999999996" y="744" width="278.83" height="235" as="geometry"/>
                </mxCell>
                <mxCell id="142" value="" style="shape=flexArrow;endArrow=classic;html=1;fillColor=#ED0036;strokeColor=none;endWidth=38;endSize=10.4;" parent="1" edge="1">
                    <mxGeometry width="50" height="50" relative="1" as="geometry">
                        <mxPoint x="-240" y="767" as="sourcePoint"/>
                        <mxPoint x="-149.43000000000006" y="820.5" as="targetPoint"/>
                    </mxGeometry>
                </mxCell>
                <mxCell id="143" value="Alert: &quot;Current Password incorrect&quot; || &quot;Password are different&quot;" style="rounded=0;whiteSpace=wrap;html=1;" parent="1" vertex="1">
                    <mxGeometry x="-120.13" y="770" width="120" height="60" as="geometry"/>
                </mxCell>
                <mxCell id="144" value="OR" style="text;html=1;align=center;verticalAlign=middle;resizable=0;points=[];autosize=1;strokeColor=none;fillColor=none;fontStyle=1;fontColor=#FFFFFF;fontSize=17;" parent="1" vertex="1">
                    <mxGeometry x="-85.13" y="846.5" width="50" height="30" as="geometry"/>
                </mxCell>
                <mxCell id="145" value="Alert: &quot;DataBase Connection failed&quot;" style="rounded=0;whiteSpace=wrap;html=1;" parent="1" vertex="1">
                    <mxGeometry x="-120.12" y="890" width="120" height="60" as="geometry"/>
                </mxCell>
                <mxCell id="146" value="" style="shape=flexArrow;endArrow=classic;html=1;fillColor=default;endWidth=24;endSize=15;" parent="1" edge="1">
                    <mxGeometry width="50" height="50" relative="1" as="geometry">
                        <mxPoint x="-860" y="821.4999999999998" as="sourcePoint"/>
                        <mxPoint x="-610" y="901.5" as="targetPoint"/>
                        <Array as="points">
                            <mxPoint x="-860" y="901.5"/>
                        </Array>
                    </mxGeometry>
                </mxCell>
                <mxCell id="147" value="&lt;span style=&quot;color: rgba(0, 0, 0, 0); font-family: monospace; font-size: 0px; text-align: start;&quot;&gt;%3CmxGraphModel%3E%3Croot%3E%3CmxCell%20id%3D%220%22%2F%3E%3CmxCell%20id%3D%221%22%20parent%3D%220%22%2F%3E%3CmxCell%20id%3D%222%22%20value%3D%22redirect%20to%26lt%3Bbr%26gt%3Bsign%20in%22%20style%3D%22rounded%3D0%3BwhiteSpace%3Dwrap%3Bhtml%3D1%3BstrokeColor%3Dnone%3BstrokeWidth%3D4%3B%22%20vertex%3D%221%22%20parent%3D%221%22%3E%3CmxGeometry%20x%3D%22537.15%22%20y%3D%22595%22%20width%3D%2294.56%22%20height%3D%2260%22%20as%3D%22geometry%22%2F%3E%3C%2FmxCell%3E%3C%2Froot%3E%3C%2FmxGraphModel%3E&lt;/span&gt;" style="rounded=1;whiteSpace=wrap;html=1;shadow=0;strokeWidth=3;fontColor=#000000;opacity=70;" parent="1" vertex="1">
                    <mxGeometry x="-594.4" y="772" width="314.4" height="198" as="geometry"/>
                </mxCell>
                <mxCell id="148" value="&lt;b&gt;Sign out&lt;br&gt;&lt;/b&gt;" style="text;html=1;align=center;verticalAlign=middle;resizable=0;points=[];autosize=1;strokeColor=none;fillColor=#999999;fontColor=#000000;labelBackgroundColor=none;labelBorderColor=none;" parent="1" vertex="1">
                    <mxGeometry x="-472.20000000000005" y="785" width="70" height="30" as="geometry"/>
                </mxCell>
                <mxCell id="149" value="close Session" style="rounded=0;whiteSpace=wrap;html=1;strokeColor=none;strokeWidth=4;" parent="1" vertex="1">
                    <mxGeometry x="-566.76" y="841" width="94.56" height="60" as="geometry"/>
                </mxCell>
                <mxCell id="150" value="" style="shape=flexArrow;endArrow=classic;html=1;fillColor=default;endWidth=11;endSize=6.63;width=8;" parent="1" edge="1">
                    <mxGeometry width="50" height="50" relative="1" as="geometry">
                        <mxPoint x="-462.20000000000016" y="870.58" as="sourcePoint"/>
                        <mxPoint x="-412.20000000000005" y="870.58" as="targetPoint"/>
                    </mxGeometry>
                </mxCell>
                <mxCell id="153" value="redirect to&lt;br&gt;login" style="rounded=0;whiteSpace=wrap;html=1;strokeColor=none;strokeWidth=4;" parent="1" vertex="1">
                    <mxGeometry x="-402.20000000000005" y="841" width="94.56" height="60" as="geometry"/>
                </mxCell>
            </root>
        </mxGraphModel>
    </diagram>
</mxfile>